<?xml version="1.0" encoding="UTF-8"?>
<svg id="Layer_1_xA0_Image" xmlns="http://www.w3.org/2000/svg" version="1.1" viewBox="0 0 1302.5 909.8">
  <!-- Generator: Adobe Illustrator 29.3.1, SVG Export Plug-In . SVG Version: 2.1.0 Build 151)  -->
  <path d="M647.1,58.7l2.6-1.7c.2,0,.4-.2.7,0h.5c.2.2.3.2.4.4l363.4,363.4,4.4,4.7h-134.7c-.2,0-.4,0-.6-.2l-185.9-185v1.4l-.4,319.4c0,.2,0,1.4,0,1.6h0c-.2.2-1.5.2-1.7.2l-89,.4h0c-4.6-.3-4.1,1.1-4-2.7V239.3l-186.2,185.7c-.2.2-.4.2-.6.2h-134c-.2,0-.2-.2-.1-.3"/>
  <path d="M730.5,812l-154.2.4c-1.2-.6-6.3-6.1-9.3-8.3l-281.8-280.7c-2.4-2.6-1.7-2.3,1.3-2.3,33,.3,132.2.3,132.2.3,5,3.9,9.1,9,13.6,13.5h0c71.3,70.3,141.1,142.4,212.5,212.6,1,1,7.1,6.7,7.7,6.7l1.9-1.3,231.5-231.5,133.1-.2h2.5l-3.1,3.5"/>
</svg>